<svg width="978" height="745" viewBox="0 0 978 745" fill="none" xmlns="http://www.w3.org/2000/svg">
<rect width="978" height="745" fill="white"/>
<path d="M540.562 219.898C529.006 200.039 506.214 180.038 483 169.387C475.298 165.853 475.185 165.599 481.891 166.893C498.129 170.028 524.007 171.979 543.012 171.503C554.252 171.221 557.779 171.361 557.505 172.078C556.221 175.424 550.84 194.442 547.468 207.553C545.276 216.074 543.328 223.2 543.139 223.39C542.949 223.579 541.79 222.008 540.562 219.898Z" fill="#03A0E4"/>
<path d="M599.911 245.367C600.183 244.209 603.184 234.802 606.581 224.462C613.211 204.281 622.167 181.108 629.284 165.722L633.696 156.182L641.948 153.236C672.033 142.497 700.662 127.104 724.788 108.696C728.504 105.86 731.762 103.757 732.028 104.023C732.874 104.869 730.562 120.442 728.202 129.787C721.041 158.14 707.431 182.06 686.614 202.876C663.884 225.607 635.973 240.507 605.11 246.388L599.417 247.473L599.911 245.367Z" fill="#03A0E4"/>
<path d="M562.2 248.781C554.065 247.943 554.011 247.914 552.311 243.434C551.44 241.139 549.432 236.48 547.849 233.081L544.97 226.901L547.835 215.481C550.922 203.179 555.091 188.024 558.286 177.49C560.563 169.983 558.938 170.843 573.8 169.272C589.694 167.591 613.407 162.611 628.845 157.711C630.224 157.273 629.824 158.607 626.051 167.031C616.698 187.917 606.727 214.592 600.198 236.198C597.401 245.452 596.462 247.623 595.086 248.017C592.991 248.615 566.561 249.229 562.2 248.781Z" fill="#03A0E4"/>
<path d="M587 256.843C583.92 255.802 579.06 254.244 576.2 253.381L571 251.811L577.4 251.687C580.92 251.619 586.5 251.28 589.8 250.935C593.1 250.589 595.873 250.355 595.962 250.413C596.37 250.68 593.618 258.854 593.14 258.798C592.843 258.764 590.08 257.884 587 256.843Z" fill="#03A0E4"/>
<path d="M573.891 328.313C571.082 323.612 566.858 317.207 564.506 314.08L560.23 308.396L560.707 296.229C561.236 282.727 559.863 268.957 556.878 257.826C555.958 254.396 555.415 251.38 555.671 251.124C556.675 250.12 593 260.457 593 261.748C593 261.981 592.122 265.657 591.05 269.917C587.113 285.553 580.547 321.436 579.241 334.462C579.023 336.634 578.515 336.05 573.891 328.313Z" fill="#03A0E4"/>
<path d="M525 382.854C525 381.958 526.374 379.704 528.054 377.844C542.034 362.362 553.749 339.048 558.092 318.067C558.747 314.902 559.444 312.151 559.641 311.954C560.22 311.375 570.874 327.466 574.808 334.862L578.424 341.662L577.179 355.262C576.494 362.742 575.854 368.972 575.755 369.107C575.657 369.242 571.947 369.862 567.511 370.484C553.458 372.456 541.966 375.938 530.575 381.674C525.355 384.303 525 384.378 525 382.854Z" fill="#03A0E4"/>
<path d="M524.425 400.462L524.6 387.262L531.4 383.899C543.025 378.151 556.488 374.063 567.8 372.847C570.44 372.563 573.23 372.156 574 371.942C574.77 371.729 575.4 371.862 575.4 372.24C575.4 372.617 572.61 374.236 569.2 375.837C554.127 382.913 537.913 396.197 526.425 410.881L524.25 413.662L524.425 400.462Z" fill="#03A0E4"/>
<path d="M448.2 242.325C448.2 237.087 441.286 185.203 439.637 178.062C439.36 176.864 441.084 178.712 443.932 182.668C454.848 197.828 466.568 209.876 480.445 220.204C489.823 227.185 496.887 231.39 507.73 236.449C512.168 238.52 516.7 240.638 517.8 241.155C519.501 241.956 519.083 242.033 515 241.668C496.846 240.049 460.418 240.545 450.4 242.549C449.19 242.791 448.2 242.69 448.2 242.325Z" fill="black"/>
<path d="M436.6 242.722C433.08 242.323 425.289 242.107 419.288 242.243L408.375 242.49L407.845 230.876C406.794 207.823 404.548 183.425 401.904 166.339L401.267 162.216L407.333 161.293C410.67 160.786 417.239 160.158 421.932 159.9L430.463 159.429L433.244 164.952C435.609 169.648 436.393 172.748 438.486 185.668C441.31 203.102 442.847 214.449 444.601 230.802C445.6 240.113 445.642 242.468 444.819 242.99C444.259 243.346 443.62 243.595 443.4 243.543C443.18 243.491 440.12 243.122 436.6 242.722Z" fill="black"/>
<path d="M531.8 243.168C505.304 235.142 483.397 222.088 464.186 202.876C450.229 188.92 439.037 173.105 437.331 164.931C436.774 162.261 436.381 160.022 436.459 159.954C436.537 159.887 440.38 160.325 445 160.928C483.728 165.981 518.769 188.754 539.214 222.158L542.435 227.42L540.661 235.741C538.654 245.16 538.58 245.222 531.8 243.168Z" fill="black"/>
<path d="M544.363 245.922C541.718 245.33 541.011 244.843 541.293 243.807C541.495 243.067 542.08 240.482 542.592 238.062C544.061 231.128 544.169 230.97 545.596 233.662C547.096 236.49 550.6 245.28 550.6 246.213C550.6 247.009 548.859 246.927 544.363 245.922Z" fill="black"/>
<path d="M408.2 247.816C408.2 244.777 409.806 244.437 423.7 244.538L434.2 244.614L428.2 245.748C422.479 246.828 412.588 248.977 409.6 249.789C408.498 250.089 408.2 249.669 408.2 247.816Z" fill="black"/>
<path d="M297 288.627C297 281.202 298.956 266.452 301.002 258.453C310.406 221.684 335.56 190.546 369.836 173.243C376.835 169.71 395.868 162.862 398.687 162.862C398.958 162.862 399.408 164.752 399.688 167.062C399.968 169.372 400.723 175.222 401.366 180.062C402.842 191.165 404.749 214.806 405.442 230.599L405.975 242.737L402.088 243.236C365.774 247.897 330.955 263.612 305.43 286.862C302.774 289.282 299.79 291.947 298.8 292.786L297 294.31V288.627Z" fill="black"/>
<path d="M557.068 304.862C556.919 303.839 546.145 292.638 539.492 286.59L534.385 281.947L535.301 276.204C536.199 270.577 540.326 248.177 540.508 247.942C540.801 247.563 551.665 250.013 552.197 250.579C553.297 251.747 556.198 264.649 557.411 273.76C558.676 283.268 558.891 297.411 557.846 302.462C557.482 304.222 557.132 305.302 557.068 304.862Z" fill="black"/>
<path d="M525 373.772C525 358.326 531.509 293.732 533.758 286.862C534.383 284.952 534.93 285.381 545.81 296.318L557.207 307.774L556.718 311.932C555.154 325.247 548 344.411 539.271 358.672C535.797 364.348 527.145 376.03 525.8 376.862C525.312 377.163 525 375.958 525 373.772Z" fill="black"/>
<path d="M410.6 420.043C400.055 418.582 388.606 415.856 385.963 414.179C385.142 413.658 385.508 411.447 387.716 403.591C399.25 362.556 406.208 315.96 407.874 268.592L408.439 252.539L415.32 250.935C424.905 248.7 439.961 246.062 443.125 246.062C445.222 246.062 445.848 246.434 446.148 247.862C447.513 254.36 448.592 284.596 448.567 315.662C448.537 353.181 447.546 372.214 443.943 404.457L442.2 420.052L439.8 420.562C435.646 421.445 418.517 421.141 410.6 420.043Z" fill="black"/>
<path d="M417.84 525.18C415.344 519.923 406.978 510.96 400.757 506.878C398.031 505.09 392.92 502.671 389.4 501.503C383.99 499.709 381.577 499.378 373.8 499.36C365.559 499.341 363.85 499.598 357.4 501.822C353.44 503.188 350.087 504.197 349.949 504.066C349.812 503.935 351.117 501 352.85 497.544C360.855 481.585 370.675 457.152 378.639 433.382C381.639 424.428 384.21 416.985 384.353 416.842C384.495 416.699 388.277 417.612 392.756 418.869C404.307 422.112 419.933 423.95 432.001 423.485L441.827 423.106L441.422 425.584C441.199 426.947 439.902 435.082 438.539 443.662C435.205 464.658 429.811 490.815 424.528 511.61C422.131 521.041 420.074 528.854 419.956 528.972C419.838 529.09 418.886 527.383 417.84 525.18Z" fill="#03A0E4"/>
<path d="M534.717 538.715C529.167 504.796 525.891 470.833 524.546 433.262L524.016 418.462L527.833 413.262C536.03 402.097 549.632 389.714 561.4 382.702C566.033 379.942 574.216 375.662 574.861 375.662C575.034 375.662 575.136 387.812 575.088 402.662C575.04 417.512 575.153 434.882 575.34 441.262C575.527 447.642 575.393 456.282 575.04 460.462C574.3 469.242 575.271 477.033 578.174 485.608L580.087 491.262L575.777 499.442C567.552 515.055 556.797 529.349 543.219 542.715L536.46 549.368L534.717 538.715Z" fill="#03A0E4"/>
<path d="M387 587.94C369.066 584.171 349.66 576.598 333.872 567.206L327.524 563.43L326.662 558.48C325.115 549.595 325.254 549.089 332.929 535.699C336.851 528.858 341.621 520.088 343.529 516.209C346.989 509.178 347.018 509.147 352.6 506.398C370.237 497.714 391.12 500.567 405.56 513.635C410.878 518.447 416.507 526.32 417.889 530.876C418.63 533.321 418.308 535.14 415.437 544.738C411.664 557.349 401.982 586.564 400.879 588.662C399.938 590.452 398.632 590.385 387 587.94Z" fill="#03A0E4"/>
<path d="M593.4 595.346C576.806 591.174 564.124 585.086 550.6 574.797C540.911 567.426 539.633 565.76 538.145 558.566L536.851 552.305L545.402 543.857C558.564 530.853 567.604 519.051 576.507 503.249C578.978 498.862 581 495.581 581 495.958C581 497.778 585.369 522.137 587.475 532.062C591.348 550.313 601.11 586.499 604.794 596.262C605.349 597.734 601.745 597.444 593.4 595.346Z" fill="#03A0E4"/>
<path d="M363.4 596.814C354.998 595.002 347.154 590.645 340.618 584.158C335.421 578.999 329.8 570.888 329.8 568.548C329.8 568.043 331.69 568.748 334 570.115C348.58 578.746 369.777 586.838 387 590.35L396.6 592.307L392.781 594.03C384.269 597.871 373.179 598.921 363.4 596.814Z" fill="#03A0E4"/>
<path d="M609.867 598.162C607.594 597.526 606.379 594.312 599.848 571.662C593.224 548.688 583.381 503.32 584.374 500.34C584.533 499.863 585.654 500.971 586.865 502.801C594.32 514.066 608.816 523.907 624.202 528.148C631.424 530.139 648.176 530.139 655.398 528.148C674.156 522.978 688.674 511.596 697.368 495.244C699.812 490.65 699.901 491.532 698.202 503.481C695.091 525.369 687.705 542.774 674.192 560.062C661.061 576.86 642.207 590.506 622.675 597.347C618.341 598.865 613.486 599.174 609.867 598.162Z" fill="#03A0E4"/>
</svg>
